<svg xmlns="http://www.w3.org/2000/svg" xmlns:xlink="http://www.w3.org/1999/xlink" width="220" zoomAndPan="magnify" viewBox="0 0 165 82.499998" height="110" preserveAspectRatio="xMidYMid meet" version="1.0"><defs><clipPath id="id1"><path d="M 0.496094 0 L 164.503906 0 L 164.503906 82.003906 L 0.496094 82.003906 Z M 0.496094 0 " clip-rule="nonzero"/></clipPath></defs><g clip-path="url(#id1)"><path fill="rgb(100%, 100%, 100%)" d="M 0.496094 0 L 164.503906 0 L 164.503906 89.457031 L 0.496094 89.457031 Z M 0.496094 0 " fill-opacity="1" fill-rule="nonzero"/><path fill="rgb(100%, 100%, 100%)" d="M 0.496094 0 L 164.503906 0 L 164.503906 82.003906 L 0.496094 82.003906 Z M 0.496094 0 " fill-opacity="1" fill-rule="nonzero"/><path fill="rgb(100%, 100%, 100%)" d="M 0.496094 0 L 164.503906 0 L 164.503906 82.003906 L 0.496094 82.003906 Z M 0.496094 0 " fill-opacity="1" fill-rule="nonzero"/><path fill="rgb(100%, 100%, 100%)" d="M 0.496094 0 L 164.503906 0 L 164.503906 82.003906 L 0.496094 82.003906 Z M 0.496094 0 " fill-opacity="1" fill-rule="nonzero"/></g><path fill="rgb(85.099792%, 19.60907%, 19.60907%)" d="M 66.984375 39.808594 C 66.96875 39.820312 66.957031 39.832031 66.945312 39.84375 C 66.957031 39.832031 66.96875 39.820312 66.984375 39.808594 Z M 75.070312 32.019531 C 75.175781 31.9375 75.28125 31.855469 75.382812 31.777344 C 75.277344 31.855469 75.175781 31.9375 75.070312 32.019531 Z M 72.84375 34.15625 C 72.804688 34.195312 72.765625 34.234375 72.722656 34.273438 C 72.765625 34.234375 72.804688 34.195312 72.84375 34.15625 Z M 72.621094 49.378906 C 72.527344 48.761719 71.957031 48.335938 71.34375 48.429688 C 71.25 48.445312 71.160156 48.472656 71.074219 48.507812 C 71.316406 48.769531 71.546875 49.015625 71.757812 49.242188 C 72.113281 49.621094 72.382812 49.808594 72.585938 49.875 C 72.632812 49.71875 72.644531 49.550781 72.621094 49.378906 Z M 74.007812 46.464844 C 73.394531 46.558594 72.976562 47.136719 73.066406 47.757812 C 73.160156 48.375 73.730469 48.800781 74.34375 48.707031 C 74.957031 48.613281 75.378906 48.035156 75.285156 47.417969 C 75.195312 46.796875 74.621094 46.371094 74.007812 46.464844 Z M 77.367188 36.640625 C 77.453125 37.222656 77.988281 37.621094 78.5625 37.535156 C 79.136719 37.445312 79.53125 36.902344 79.445312 36.324219 C 79.433594 36.25 79.417969 36.183594 79.394531 36.117188 C 79.242188 35.703125 78.851562 35.421875 78.414062 35.421875 C 78.359375 35.417969 78.304688 35.421875 78.25 35.429688 C 77.675781 35.519531 77.277344 36.058594 77.367188 36.640625 Z M 78.183594 39.863281 C 78.765625 39.777344 79.167969 39.226562 79.078125 38.640625 C 78.988281 38.050781 78.445312 37.644531 77.863281 37.734375 C 77.28125 37.824219 76.882812 38.371094 76.96875 38.960938 C 77.058594 39.550781 77.601562 39.953125 78.183594 39.863281 Z M 77.804688 42.195312 C 78.394531 42.105469 78.800781 41.550781 78.710938 40.953125 C 78.621094 40.359375 78.070312 39.949219 77.480469 40.039062 C 76.890625 40.128906 76.484375 40.683594 76.574219 41.28125 C 76.664062 41.875 77.214844 42.285156 77.804688 42.195312 Z M 77.425781 44.527344 C 78.023438 44.4375 78.433594 43.871094 78.34375 43.269531 C 78.253906 42.664062 77.695312 42.25 77.097656 42.339844 C 76.5 42.433594 76.089844 42.996094 76.179688 43.601562 C 76.269531 44.203125 76.828125 44.617188 77.425781 44.527344 Z M 77.976562 45.585938 C 77.882812 44.972656 77.320312 44.550781 76.714844 44.644531 C 76.109375 44.738281 75.695312 45.308594 75.785156 45.917969 C 75.875 46.53125 76.441406 46.953125 77.046875 46.859375 C 77.648438 46.765625 78.066406 46.195312 77.976562 45.585938 Z M 76.332031 46.949219 C 75.71875 47.042969 75.296875 47.621094 75.390625 48.238281 C 75.480469 48.859375 76.054688 49.285156 76.664062 49.191406 C 77.277344 49.097656 77.699219 48.519531 77.605469 47.898438 C 77.515625 47.28125 76.941406 46.855469 76.332031 46.949219 Z M 79.835938 36.980469 C 79.910156 37.46875 80.359375 37.804688 80.839844 37.730469 C 81.214844 37.675781 81.496094 37.390625 81.570312 37.039062 C 81.011719 36.894531 80.464844 36.6875 79.9375 36.417969 C 79.847656 36.582031 79.804688 36.78125 79.835938 36.980469 Z M 80.460938 40.054688 C 80.949219 39.980469 81.28125 39.523438 81.210938 39.03125 C 81.136719 38.539062 80.679688 38.199219 80.195312 38.273438 C 79.707031 38.347656 79.371094 38.808594 79.445312 39.300781 C 79.519531 39.792969 79.976562 40.128906 80.460938 40.054688 Z M 79.058594 41.617188 C 79.132812 42.113281 79.589844 42.457031 80.082031 42.378906 C 80.570312 42.304688 80.910156 41.84375 80.835938 41.347656 C 80.761719 40.851562 80.300781 40.507812 79.8125 40.585938 C 79.320312 40.660156 78.984375 41.121094 79.058594 41.617188 Z M 79.429688 42.894531 C 78.933594 42.96875 78.59375 43.4375 78.667969 43.9375 C 78.742188 44.4375 79.203125 44.78125 79.699219 44.707031 C 80.195312 44.628906 80.535156 44.164062 80.460938 43.664062 C 80.386719 43.164062 79.925781 42.820312 79.429688 42.894531 Z M 79.046875 45.203125 C 78.546875 45.28125 78.203125 45.75 78.277344 46.253906 C 78.355469 46.761719 78.820312 47.105469 79.320312 47.03125 C 79.820312 46.953125 80.160156 46.484375 80.085938 45.980469 C 80.011719 45.476562 79.546875 45.128906 79.046875 45.203125 Z M 78.664062 47.515625 C 78.160156 47.589844 77.8125 48.066406 77.890625 48.574219 C 77.964844 49.082031 78.4375 49.433594 78.9375 49.355469 C 79.441406 49.277344 79.789062 48.804688 79.710938 48.296875 C 79.636719 47.789062 79.167969 47.4375 78.664062 47.515625 Z M 83.019531 37.957031 C 83.355469 37.90625 83.605469 37.632812 83.644531 37.308594 C 83.152344 37.308594 82.65625 37.261719 82.167969 37.171875 C 82.164062 37.222656 82.167969 37.277344 82.175781 37.328125 C 82.234375 37.738281 82.613281 38.019531 83.019531 37.957031 Z M 82.644531 40.296875 C 83.066406 40.230469 83.355469 39.835938 83.292969 39.410156 C 83.226562 38.984375 82.835938 38.695312 82.417969 38.757812 C 81.996094 38.824219 81.707031 39.21875 81.769531 39.644531 C 81.835938 40.066406 82.226562 40.359375 82.644531 40.296875 Z M 82.273438 42.632812 C 82.707031 42.566406 83.007812 42.15625 82.941406 41.71875 C 82.875 41.277344 82.472656 40.976562 82.035156 41.042969 C 81.601562 41.109375 81.300781 41.519531 81.367188 41.957031 C 81.433594 42.398438 81.839844 42.699219 82.273438 42.632812 Z M 82.59375 44.023438 C 82.523438 43.566406 82.105469 43.253906 81.65625 43.324219 C 81.207031 43.394531 80.898438 43.816406 80.964844 44.273438 C 81.03125 44.726562 81.453125 45.039062 81.902344 44.96875 C 82.351562 44.902344 82.660156 44.476562 82.59375 44.023438 Z M 81.273438 45.609375 C 80.8125 45.679688 80.492188 46.117188 80.5625 46.585938 C 80.632812 47.054688 81.066406 47.378906 81.53125 47.308594 C 81.992188 47.238281 82.3125 46.800781 82.242188 46.328125 C 82.171875 45.859375 81.738281 45.535156 81.273438 45.609375 Z M 80.894531 47.890625 C 80.414062 47.964844 80.085938 48.417969 80.160156 48.902344 C 80.230469 49.386719 80.679688 49.71875 81.15625 49.644531 C 81.636719 49.570312 81.964844 49.121094 81.894531 48.636719 C 81.820312 48.152344 81.375 47.816406 80.894531 47.890625 Z M 84.742188 37.652344 C 84.78125 37.917969 85.023438 38.097656 85.28125 38.058594 C 85.542969 38.019531 85.722656 37.773438 85.679688 37.511719 C 85.652344 37.328125 85.527344 37.183594 85.363281 37.128906 C 85.296875 37.105469 85.21875 37.09375 85.140625 37.105469 C 85.050781 37.121094 84.972656 37.160156 84.910156 37.214844 C 84.785156 37.316406 84.714844 37.480469 84.742188 37.652344 Z M 84.917969 40.449219 C 85.222656 40.402344 85.429688 40.113281 85.386719 39.808594 C 85.339844 39.5 85.054688 39.289062 84.753906 39.335938 C 84.449219 39.382812 84.238281 39.671875 84.285156 39.976562 C 84.332031 40.285156 84.613281 40.496094 84.917969 40.449219 Z M 84.554688 42.839844 C 84.902344 42.785156 85.140625 42.457031 85.085938 42.105469 C 85.035156 41.753906 84.710938 41.515625 84.363281 41.566406 C 84.015625 41.621094 83.777344 41.949219 83.828125 42.296875 C 83.882812 42.648438 84.207031 42.890625 84.554688 42.839844 Z M 83.976562 43.796875 C 83.582031 43.855469 83.3125 44.226562 83.375 44.621094 C 83.433594 45.015625 83.796875 45.289062 84.1875 45.230469 C 84.582031 45.167969 84.851562 44.800781 84.792969 44.40625 C 84.730469 44.007812 84.367188 43.738281 83.976562 43.796875 Z M 83.585938 46.027344 C 83.152344 46.09375 82.851562 46.503906 82.917969 46.945312 C 82.984375 47.382812 83.390625 47.6875 83.824219 47.621094 C 84.261719 47.554688 84.558594 47.144531 84.496094 46.703125 C 84.429688 46.261719 84.023438 45.960938 83.585938 46.027344 Z M 83.199219 48.257812 C 82.71875 48.328125 82.390625 48.78125 82.460938 49.265625 C 82.535156 49.75 82.980469 50.085938 83.460938 50.011719 C 83.941406 49.9375 84.269531 49.484375 84.199219 49 C 84.125 48.515625 83.675781 48.183594 83.199219 48.257812 Z M 87.550781 38.3125 C 87.691406 38.289062 87.792969 38.152344 87.769531 38.007812 C 87.75 37.863281 87.613281 37.765625 87.472656 37.785156 C 87.328125 37.808594 87.230469 37.945312 87.25 38.089844 C 87.273438 38.234375 87.40625 38.332031 87.550781 38.3125 Z M 87.175781 40.707031 C 87.371094 40.679688 87.507812 40.496094 87.476562 40.296875 C 87.449219 40.101562 87.265625 39.964844 87.070312 39.992188 C 86.875 40.023438 86.742188 40.207031 86.769531 40.40625 C 86.800781 40.601562 86.980469 40.738281 87.175781 40.707031 Z M 86.667969 42.199219 C 86.421875 42.238281 86.25 42.472656 86.289062 42.722656 C 86.328125 42.972656 86.558594 43.144531 86.804688 43.105469 C 87.050781 43.066406 87.222656 42.835938 87.183594 42.585938 C 87.148438 42.335938 86.917969 42.164062 86.667969 42.199219 Z M 86.269531 44.40625 C 85.96875 44.453125 85.761719 44.734375 85.808594 45.039062 C 85.851562 45.339844 86.132812 45.550781 86.433594 45.503906 C 86.730469 45.457031 86.9375 45.175781 86.890625 44.871094 C 86.847656 44.570312 86.566406 44.363281 86.269531 44.40625 Z M 85.867188 46.613281 C 85.515625 46.667969 85.273438 47 85.328125 47.355469 C 85.378906 47.710938 85.707031 47.953125 86.058594 47.902344 C 86.410156 47.847656 86.652344 47.515625 86.597656 47.160156 C 86.546875 46.804688 86.21875 46.5625 85.867188 46.613281 Z M 85.464844 48.820312 C 85.0625 48.882812 84.785156 49.265625 84.84375 49.671875 C 84.90625 50.078125 85.28125 50.359375 85.6875 50.296875 C 86.089844 50.238281 86.367188 49.855469 86.304688 49.449219 C 86.246094 49.039062 85.867188 48.761719 85.464844 48.820312 Z M 89.832031 38.480469 C 89.882812 38.472656 89.917969 38.425781 89.910156 38.371094 C 89.902344 38.320312 89.855469 38.285156 89.804688 38.292969 C 89.753906 38.300781 89.71875 38.347656 89.726562 38.402344 C 89.734375 38.453125 89.78125 38.488281 89.832031 38.480469 Z M 89.628906 40.664062 C 89.609375 40.554688 89.511719 40.480469 89.402344 40.496094 C 89.292969 40.511719 89.21875 40.613281 89.234375 40.722656 C 89.25 40.835938 89.351562 40.910156 89.460938 40.890625 C 89.570312 40.875 89.644531 40.773438 89.628906 40.664062 Z M 88.996094 42.699219 C 88.832031 42.722656 88.71875 42.878906 88.742188 43.046875 C 88.769531 43.214844 88.921875 43.328125 89.089844 43.304688 C 89.253906 43.28125 89.367188 43.125 89.34375 42.957031 C 89.316406 42.789062 89.164062 42.675781 88.996094 42.699219 Z M 88.59375 44.902344 C 88.371094 44.9375 88.21875 45.148438 88.253906 45.371094 C 88.285156 45.597656 88.492188 45.75 88.714844 45.71875 C 88.9375 45.683594 89.089844 45.472656 89.058594 45.25 C 89.023438 45.023438 88.816406 44.867188 88.59375 44.902344 Z M 88.191406 47.105469 C 87.910156 47.148438 87.71875 47.414062 87.761719 47.695312 C 87.804688 47.976562 88.066406 48.171875 88.34375 48.128906 C 88.625 48.085938 88.816406 47.824219 88.773438 47.539062 C 88.730469 47.257812 88.46875 47.0625 88.191406 47.105469 Z M 87.785156 49.308594 C 87.449219 49.359375 87.21875 49.679688 87.269531 50.019531 C 87.320312 50.359375 87.632812 50.59375 87.972656 50.542969 C 88.308594 50.492188 88.539062 50.171875 88.488281 49.832031 C 88.4375 49.492188 88.125 49.257812 87.785156 49.308594 Z M 91.738281 41.007812 C 91.6875 41.015625 91.652344 41.0625 91.660156 41.117188 C 91.667969 41.167969 91.714844 41.203125 91.765625 41.195312 C 91.816406 41.1875 91.851562 41.140625 91.84375 41.085938 C 91.835938 41.035156 91.789062 41 91.738281 41.007812 Z M 91.316406 43.207031 C 91.203125 43.222656 91.121094 43.332031 91.140625 43.449219 C 91.15625 43.566406 91.265625 43.644531 91.378906 43.628906 C 91.496094 43.609375 91.574219 43.5 91.558594 43.382812 C 91.539062 43.269531 91.433594 43.1875 91.316406 43.207031 Z M 90.894531 45.402344 C 90.71875 45.429688 90.59375 45.601562 90.621094 45.78125 C 90.648438 45.960938 90.816406 46.085938 90.996094 46.058594 C 91.175781 46.03125 91.296875 45.863281 91.269531 45.683594 C 91.242188 45.5 91.074219 45.375 90.894531 45.402344 Z M 90.476562 47.601562 C 90.230469 47.640625 90.066406 47.867188 90.101562 48.113281 C 90.136719 48.359375 90.367188 48.53125 90.609375 48.492188 C 90.851562 48.457031 91.019531 48.226562 90.984375 47.980469 C 90.945312 47.734375 90.71875 47.566406 90.476562 47.601562 Z M 90.054688 49.800781 C 89.746094 49.847656 89.535156 50.136719 89.582031 50.449219 C 89.628906 50.757812 89.917969 50.972656 90.222656 50.925781 C 90.53125 50.878906 90.742188 50.589844 90.695312 50.277344 C 90.648438 49.964844 90.363281 49.753906 90.054688 49.800781 Z M 70.726562 47.441406 C 70.65625 47.585938 70.558594 47.714844 70.4375 47.820312 C 69.894531 47.230469 69.335938 46.613281 68.855469 46.050781 C 68.820312 46.023438 68.785156 45.992188 68.753906 45.960938 C 68.578125 45.804688 68.40625 45.648438 68.238281 45.488281 C 68.21875 45.46875 68.203125 45.453125 68.183594 45.433594 L 68.085938 45.832031 C 68.085938 45.832031 67.847656 47.996094 66.8125 45.855469 C 66.746094 45.714844 66.675781 45.566406 66.605469 45.417969 C 66.058594 44.269531 65.421875 42.859375 64.914062 41.695312 C 64.914062 41.695312 64.738281 41.296875 64.660156 41.109375 C 64.546875 40.925781 64.433594 40.742188 64.324219 40.558594 L 64.054688 41.09375 C 64.054688 41.09375 63.328125 42.824219 62.992188 40.800781 C 62.71875 39.179688 62.277344 36.8125 62.054688 35.25 C 62.011719 35.097656 61.96875 34.949219 61.929688 34.796875 L 61.390625 35.394531 C 61.390625 35.394531 60.253906 36.796875 60.535156 34.488281 C 60.746094 32.804688 60.960938 30.460938 61.164062 28.972656 C 61.160156 28.851562 61.164062 28.730469 61.164062 28.609375 L 60.640625 28.882812 C 60.640625 28.882812 59.175781 29.859375 59.953125 27.84375 C 60.535156 26.335938 61.378906 24.183594 61.980469 22.796875 C 62.011719 22.683594 62.042969 22.574219 62.074219 22.460938 L 61.554688 22.570312 C 61.554688 22.570312 59.929688 23.023438 61 21.554688 C 61.957031 20.238281 63.441406 18.292969 64.4375 17.078125 C 64.496094 16.984375 64.550781 16.886719 64.609375 16.792969 L 63.414062 16.65625 C 63.414062 16.65625 62.296875 16.472656 63.863281 15.304688 C 65.28125 14.246094 67.332031 12.847656 68.527344 12.03125 L 67.273438 11.695312 C 67.273438 11.695312 66.082031 11.414062 67.402344 10.894531 C 69.09375 10.230469 72.0625 9.046875 73.628906 8.523438 L 72.160156 7.449219 C 72.160156 7.449219 71.386719 6.941406 72.878906 6.871094 C 74.703125 6.78125 77.84375 6.625 79.457031 6.554688 L 79.445312 6.558594 C 79.453125 6.558594 79.460938 6.554688 79.464844 6.554688 L 78.410156 5.273438 C 78.410156 5.273438 77.46875 4.277344 78.984375 4.667969 C 80.839844 5.148438 84.003906 5.847656 85.59375 6.226562 L 84.789062 4.675781 C 84.789062 4.675781 83.972656 3.253906 85.269531 4.03125 C 86.988281 5.066406 90.109375 6.757812 91.589844 7.59375 L 91.011719 5.085938 C 91.011719 5.085938 90.507812 3.289062 91.839844 4.820312 C 93.328125 6.527344 95.792969 9.335938 96.957031 10.523438 C 98.375 11.617188 99.390625 13.246094 99.679688 15.171875 C 100.269531 19.105469 97.589844 22.777344 93.699219 23.371094 C 91.628906 23.6875 89.632812 23.070312 88.125 21.828125 C 86.433594 20.734375 84.429688 20.300781 82.421875 20.605469 C 80.226562 20.941406 78.292969 22.121094 76.976562 23.929688 C 75.332031 26.183594 74.972656 29 75.761719 31.484375 C 75.863281 31.804688 75.984375 32.117188 76.121094 32.421875 C 76.128906 32.4375 76.132812 32.445312 76.136719 32.460938 C 76.46875 33.183594 76.90625 33.863281 77.441406 34.476562 C 77.261719 34.703125 77.007812 34.867188 76.710938 34.925781 C 77.019531 35.109375 77.246094 35.425781 77.304688 35.8125 C 77.40625 36.496094 76.941406 37.128906 76.269531 37.234375 C 76.265625 37.234375 76.265625 37.234375 76.261719 37.234375 C 76.59375 37.40625 76.839844 37.734375 76.898438 38.132812 C 77 38.804688 76.546875 39.425781 75.882812 39.527344 C 75.855469 39.53125 75.828125 39.535156 75.800781 39.535156 C 76.160156 39.695312 76.433594 40.03125 76.496094 40.453125 C 76.59375 41.109375 76.148438 41.722656 75.5 41.824219 C 75.433594 41.832031 75.371094 41.835938 75.308594 41.835938 C 75.710938 41.96875 76.027344 42.324219 76.09375 42.777344 C 76.1875 43.417969 75.75 44.019531 75.113281 44.117188 C 74.511719 44.210938 73.949219 43.820312 73.808594 43.234375 C 73.640625 43.546875 73.351562 43.785156 72.992188 43.882812 C 73.261719 44.074219 73.457031 44.371094 73.511719 44.726562 C 73.515625 44.75 73.515625 44.769531 73.515625 44.792969 C 73.671875 44.449219 73.988281 44.1875 74.386719 44.125 C 75.011719 44.03125 75.59375 44.464844 75.6875 45.097656 C 75.785156 45.726562 75.355469 46.316406 74.730469 46.414062 C 74.105469 46.507812 73.523438 46.074219 73.429688 45.441406 C 73.425781 45.429688 73.425781 45.421875 73.425781 45.40625 C 73.261719 45.796875 72.90625 46.097656 72.460938 46.164062 C 72.453125 46.167969 72.445312 46.167969 72.433594 46.167969 C 72.761719 46.335938 73.007812 46.65625 73.066406 47.054688 C 73.164062 47.707031 72.71875 48.320312 72.070312 48.417969 C 71.433594 48.515625 70.839844 48.078125 70.726562 47.441406 Z M 71.929688 43.703125 C 71.71875 43.558594 71.546875 43.355469 71.445312 43.113281 C 71.292969 43.308594 71.085938 43.464844 70.84375 43.550781 C 71.035156 43.714844 71.179688 43.9375 71.253906 44.191406 C 71.414062 43.960938 71.648438 43.785156 71.929688 43.703125 Z M 72.175781 41.363281 C 72.027344 41.242188 71.902344 41.089844 71.8125 40.914062 C 71.683594 41.058594 71.523438 41.175781 71.34375 41.253906 C 71.476562 41.390625 71.585938 41.554688 71.65625 41.738281 C 71.792969 41.574219 71.96875 41.445312 72.175781 41.363281 Z M 72.4375 39.027344 C 72.335938 38.933594 72.25 38.824219 72.179688 38.703125 C 72.078125 38.804688 71.960938 38.890625 71.832031 38.957031 C 71.921875 39.058594 72 39.175781 72.058594 39.304688 C 72.167969 39.191406 72.292969 39.097656 72.4375 39.027344 Z M 72.710938 36.695312 C 72.652344 36.628906 72.597656 36.5625 72.546875 36.488281 C 72.476562 36.550781 72.398438 36.609375 72.3125 36.660156 C 72.367188 36.726562 72.414062 36.800781 72.457031 36.878906 C 72.535156 36.808594 72.621094 36.746094 72.710938 36.695312 Z M 72.992188 34.359375 C 72.9375 34.296875 72.890625 34.226562 72.84375 34.15625 C 72.804688 34.195312 72.765625 34.234375 72.722656 34.273438 C 72.773438 34.332031 72.816406 34.394531 72.855469 34.460938 C 72.898438 34.425781 72.945312 34.390625 72.992188 34.359375 Z M 74.949219 41.773438 C 74.605469 41.660156 74.320312 41.386719 74.199219 41.027344 C 74.039062 41.28125 73.800781 41.484375 73.507812 41.589844 C 73.726562 41.777344 73.882812 42.039062 73.945312 42.339844 C 74.117188 42.050781 74.410156 41.839844 74.765625 41.785156 C 74.828125 41.777344 74.890625 41.773438 74.949219 41.773438 Z M 75.222656 39.4375 C 74.945312 39.316406 74.71875 39.09375 74.59375 38.804688 C 74.449219 39.015625 74.246094 39.183594 74.007812 39.292969 C 74.175781 39.460938 74.304688 39.675781 74.367188 39.917969 C 74.550781 39.671875 74.820312 39.496094 75.144531 39.445312 C 75.171875 39.441406 75.195312 39.441406 75.222656 39.4375 Z M 75.523438 37.105469 C 75.296875 36.992188 75.113281 36.804688 74.992188 36.574219 C 74.859375 36.746094 74.691406 36.890625 74.496094 36.996094 C 74.625 37.140625 74.726562 37.316406 74.789062 37.515625 C 74.972656 37.304688 75.226562 37.152344 75.523438 37.105469 Z M 75.839844 34.78125 C 75.65625 34.671875 75.503906 34.523438 75.390625 34.335938 C 75.277344 34.480469 75.136719 34.601562 74.976562 34.695312 C 75.078125 34.820312 75.160156 34.960938 75.214844 35.117188 C 75.378906 34.949219 75.59375 34.832031 75.839844 34.78125 Z M 66.984375 39.808594 C 66.96875 39.820312 66.957031 39.832031 66.945312 39.84375 C 66.957031 39.832031 66.96875 39.820312 66.984375 39.808594 Z M 69.507812 43.328125 C 69.359375 43.207031 69.238281 43.054688 69.148438 42.878906 C 69.015625 43.019531 68.859375 43.136719 68.675781 43.21875 C 68.8125 43.351562 68.921875 43.515625 68.992188 43.703125 C 69.128906 43.539062 69.304688 43.40625 69.507812 43.328125 Z M 69.769531 40.988281 C 69.671875 40.894531 69.585938 40.789062 69.515625 40.667969 C 69.410156 40.769531 69.292969 40.851562 69.167969 40.921875 C 69.257812 41.023438 69.332031 41.140625 69.394531 41.265625 C 69.5 41.15625 69.628906 41.058594 69.769531 40.988281 Z M 70.046875 38.65625 C 69.988281 38.59375 69.933594 38.523438 69.882812 38.449219 C 69.808594 38.515625 69.730469 38.570312 69.648438 38.621094 C 69.703125 38.691406 69.75 38.765625 69.792969 38.84375 C 69.867188 38.769531 69.953125 38.710938 70.046875 38.65625 Z M 70.84375 46.613281 C 71.011719 46.285156 71.328125 46.273438 71.714844 45.914062 L 71.71875 45.914062 C 71.421875 45.914062 71.1875 45.5625 71.085938 45.226562 C 70.910156 45.492188 70.644531 45.691406 70.328125 45.777344 C 70.59375 45.96875 70.789062 46.261719 70.84375 46.613281 Z M 74.988281 49.832031 C 74.894531 49.195312 74.308594 48.761719 73.683594 48.859375 C 73.148438 48.9375 72.757812 49.378906 72.710938 49.898438 C 73.117188 49.925781 73.199219 49.375 73.214844 49.074219 C 73.539062 49.246094 73.867188 49.40625 74.195312 49.5625 C 74.453125 49.734375 74.722656 49.910156 74.996094 50.085938 C 75.003906 50 75 49.917969 74.988281 49.832031 Z M 77.167969 50.210938 C 77.082031 49.621094 76.539062 49.214844 75.953125 49.304688 C 75.507812 49.371094 75.167969 49.710938 75.074219 50.132812 C 75.648438 50.5 76.242188 50.867188 76.796875 51.199219 C 77.074219 50.964844 77.226562 50.597656 77.167969 50.210938 Z M 79.351562 50.585938 C 79.269531 50.042969 78.765625 49.667969 78.226562 49.75 C 77.683594 49.832031 77.3125 50.339844 77.394531 50.886719 C 77.476562 51.433594 77.980469 51.808594 78.519531 51.726562 C 78.765625 51.6875 78.972656 51.5625 79.121094 51.386719 C 79.105469 51.316406 79.089844 51.25 79.070312 51.1875 C 79.125 51.199219 79.179688 51.210938 79.238281 51.222656 C 79.339844 51.035156 79.382812 50.816406 79.351562 50.585938 Z M 81.53125 50.964844 C 81.457031 50.464844 80.992188 50.121094 80.496094 50.195312 C 80 50.269531 79.660156 50.738281 79.734375 51.242188 C 79.738281 51.269531 79.742188 51.292969 79.75 51.320312 C 79.9375 51.355469 80.128906 51.386719 80.320312 51.414062 C 80.640625 51.511719 80.976562 51.613281 81.316406 51.710938 C 81.484375 51.511719 81.574219 51.246094 81.53125 50.964844 Z M 83.710938 51.34375 C 83.644531 50.886719 83.21875 50.570312 82.769531 50.640625 C 82.316406 50.710938 82.003906 51.136719 82.070312 51.597656 C 82.09375 51.734375 82.144531 51.859375 82.222656 51.96875 C 82.5625 52.0625 82.898438 52.15625 83.214844 52.242188 C 83.558594 52.097656 83.769531 51.730469 83.710938 51.34375 Z M 85.039062 51.085938 C 84.628906 51.148438 84.347656 51.535156 84.410156 51.953125 C 84.472656 52.363281 84.855469 52.648438 85.265625 52.589844 C 85.316406 52.582031 85.367188 52.566406 85.414062 52.550781 C 85.667969 52.34375 85.429688 51.875 85.257812 51.601562 C 85.453125 51.589844 85.648438 51.570312 85.847656 51.550781 C 85.71875 51.234375 85.390625 51.035156 85.039062 51.085938 Z M 92.808594 48.117188 C 92.613281 48.148438 92.476562 48.332031 92.507812 48.53125 C 92.539062 48.726562 92.71875 48.863281 92.917969 48.832031 C 93.113281 48.804688 93.246094 48.621094 93.214844 48.421875 C 93.1875 48.222656 93.003906 48.085938 92.808594 48.117188 Z M 95.140625 48.613281 C 95 48.636719 94.902344 48.765625 94.925781 48.90625 C 94.933594 48.976562 94.972656 49.035156 95.023438 49.074219 C 95.074219 49.113281 95.144531 49.136719 95.214844 49.125 C 95.3125 49.109375 95.382812 49.042969 95.414062 48.957031 C 95.429688 48.917969 95.4375 48.875 95.429688 48.828125 C 95.410156 48.6875 95.277344 48.59375 95.140625 48.613281 Z M 95.53125 46.429688 C 95.460938 46.441406 95.414062 46.503906 95.425781 46.574219 C 95.433594 46.640625 95.5 46.6875 95.566406 46.679688 C 95.632812 46.667969 95.679688 46.605469 95.671875 46.535156 C 95.660156 46.464844 95.597656 46.417969 95.53125 46.429688 Z M 93.210938 45.902344 C 93.0625 45.925781 92.960938 46.0625 92.984375 46.214844 C 93.003906 46.363281 93.144531 46.464844 93.289062 46.441406 C 93.4375 46.421875 93.539062 46.28125 93.519531 46.132812 C 93.496094 45.984375 93.359375 45.878906 93.210938 45.902344 Z M 93.609375 43.738281 C 93.554688 43.746094 93.515625 43.800781 93.523438 43.859375 C 93.53125 43.914062 93.585938 43.957031 93.640625 43.945312 C 93.699219 43.9375 93.738281 43.882812 93.730469 43.828125 C 93.722656 43.769531 93.667969 43.730469 93.609375 43.738281 Z M 93.609375 43.738281 " fill-opacity="1" fill-rule="nonzero"/><path fill="rgb(6.669617%, 11.369324%, 14.118958%)" d="M 43.316406 72.882812 L 43.316406 73.398438 C 43.316406 73.703125 43.117188 73.898438 42.820312 73.898438 C 42.515625 73.898438 42.328125 73.703125 42.328125 73.398438 L 42.328125 72.714844 C 42.328125 72.3125 42.109375 72.117188 41.761719 72.117188 C 41.417969 72.117188 41.210938 72.3125 41.210938 72.714844 L 41.210938 76.867188 C 41.210938 77.269531 41.417969 77.464844 41.761719 77.464844 C 42.109375 77.464844 42.328125 77.269531 42.328125 76.867188 L 42.328125 76.179688 C 42.328125 75.878906 42.515625 75.683594 42.820312 75.683594 C 43.117188 75.683594 43.316406 75.878906 43.316406 76.179688 L 43.316406 76.699219 C 43.316406 77.699219 42.769531 78.355469 41.753906 78.355469 C 40.714844 78.355469 40.160156 77.71875 40.160156 76.699219 L 40.160156 72.878906 C 40.160156 71.863281 40.714844 71.226562 41.753906 71.226562 C 42.769531 71.226562 43.316406 71.882812 43.316406 72.882812 Z M 43.316406 72.882812 " fill-opacity="1" fill-rule="nonzero"/><path fill="rgb(6.669617%, 11.369324%, 14.118958%)" d="M 46.816406 72.859375 C 46.816406 71.871094 47.449219 71.226562 48.457031 71.226562 C 49.464844 71.226562 50.097656 71.871094 50.097656 72.859375 L 50.097656 76.71875 C 50.097656 77.710938 49.464844 78.355469 48.457031 78.355469 C 47.449219 78.355469 46.816406 77.710938 46.816406 76.71875 Z M 49.050781 72.714844 C 49.050781 72.363281 48.824219 72.117188 48.457031 72.117188 C 48.089844 72.117188 47.863281 72.363281 47.863281 72.714844 L 47.863281 76.867188 C 47.863281 77.21875 48.089844 77.464844 48.457031 77.464844 C 48.824219 77.464844 49.050781 77.21875 49.050781 76.867188 Z M 49.050781 72.714844 " fill-opacity="1" fill-rule="nonzero"/><path fill="rgb(6.669617%, 11.369324%, 14.118958%)" d="M 54.339844 71.363281 L 55.25 71.363281 C 56.476562 71.363281 57.050781 72.078125 57.050781 73.175781 L 57.050781 76.40625 C 57.050781 77.503906 56.476562 78.21875 55.25 78.21875 L 54.339844 78.21875 C 54.035156 78.21875 53.816406 78.003906 53.816406 77.699219 L 53.816406 71.882812 C 53.816406 71.578125 54.035156 71.363281 54.339844 71.363281 Z M 55.261719 77.308594 C 55.753906 77.308594 56.003906 77.015625 56.003906 76.5625 L 56.003906 73.019531 C 56.003906 72.566406 55.753906 72.273438 55.261719 72.273438 L 54.863281 72.273438 L 54.863281 77.308594 Z M 55.261719 77.308594 " fill-opacity="1" fill-rule="nonzero"/><path fill="rgb(6.669617%, 11.369324%, 14.118958%)" d="M 60.769531 71.785156 C 60.769531 71.480469 60.976562 71.265625 61.292969 71.265625 C 61.597656 71.265625 61.816406 71.480469 61.816406 71.785156 L 61.816406 77.796875 C 61.816406 78.101562 61.597656 78.316406 61.292969 78.316406 C 60.976562 78.316406 60.769531 78.101562 60.769531 77.796875 Z M 60.769531 71.785156 " fill-opacity="1" fill-rule="nonzero"/><path fill="rgb(6.669617%, 11.369324%, 14.118958%)" d="M 68.6875 72.882812 L 68.6875 73.398438 C 68.6875 73.703125 68.492188 73.898438 68.195312 73.898438 C 67.886719 73.898438 67.699219 73.703125 67.699219 73.398438 L 67.699219 72.714844 C 67.699219 72.3125 67.484375 72.117188 67.136719 72.117188 C 66.789062 72.117188 66.582031 72.3125 66.582031 72.714844 L 66.582031 76.867188 C 66.582031 77.269531 66.789062 77.464844 67.136719 77.464844 C 67.480469 77.464844 67.699219 77.269531 67.699219 76.867188 L 67.699219 76.179688 C 67.699219 75.878906 67.886719 75.683594 68.195312 75.683594 C 68.492188 75.683594 68.6875 75.878906 68.6875 76.179688 L 68.6875 76.699219 C 68.6875 77.699219 68.144531 78.355469 67.125 78.355469 C 66.089844 78.355469 65.535156 77.71875 65.535156 76.699219 L 65.535156 72.878906 C 65.535156 71.863281 66.089844 71.226562 67.125 71.226562 C 68.144531 71.226562 68.6875 71.882812 68.6875 72.882812 Z M 68.6875 72.882812 " fill-opacity="1" fill-rule="nonzero"/><path fill="rgb(6.669617%, 11.369324%, 14.118958%)" d="M 72.328125 71.882812 C 72.328125 71.578125 72.546875 71.363281 72.851562 71.363281 L 74.828125 71.363281 C 75.105469 71.363281 75.292969 71.558594 75.292969 71.824219 C 75.292969 72.097656 75.105469 72.285156 74.828125 72.285156 L 73.375 72.285156 L 73.375 74.28125 L 74.503906 74.28125 C 74.769531 74.28125 74.96875 74.476562 74.96875 74.742188 C 74.96875 75.015625 74.769531 75.203125 74.503906 75.203125 L 73.375 75.203125 L 73.375 77.296875 L 74.839844 77.296875 C 75.117188 77.296875 75.304688 77.492188 75.304688 77.757812 C 75.304688 78.023438 75.117188 78.21875 74.839844 78.21875 L 72.851562 78.21875 C 72.546875 78.21875 72.328125 78.003906 72.328125 77.699219 Z M 72.328125 71.882812 " fill-opacity="1" fill-rule="nonzero"/><path fill="rgb(6.669617%, 11.369324%, 14.118958%)" d="M 79.863281 75.515625 L 79.863281 77.796875 C 79.863281 78.101562 79.644531 78.316406 79.339844 78.316406 C 79.03125 78.316406 78.816406 78.101562 78.816406 77.796875 L 78.816406 71.882812 C 78.816406 71.578125 79.03125 71.363281 79.339844 71.363281 L 80.269531 71.363281 C 81.347656 71.363281 81.96875 71.902344 81.96875 73.039062 L 81.96875 73.820312 C 81.96875 74.847656 81.277344 75.515625 80.25 75.515625 Z M 80.921875 73.019531 C 80.921875 72.558594 80.683594 72.285156 80.238281 72.285156 L 79.863281 72.285156 L 79.863281 74.59375 L 80.21875 74.59375 C 80.664062 74.59375 80.921875 74.328125 80.921875 73.859375 Z M 80.921875 73.019531 " fill-opacity="1" fill-rule="nonzero"/><path fill="rgb(6.669617%, 11.369324%, 14.118958%)" d="M 85.480469 71.785156 C 85.480469 71.480469 85.695312 71.265625 86.003906 71.265625 C 86.308594 71.265625 86.527344 71.480469 86.527344 71.785156 L 86.527344 77.296875 L 87.8125 77.296875 C 88.078125 77.296875 88.277344 77.492188 88.277344 77.757812 C 88.277344 78.023438 88.078125 78.21875 87.8125 78.21875 L 86.003906 78.21875 C 85.695312 78.21875 85.480469 78.003906 85.480469 77.699219 Z M 85.480469 71.785156 " fill-opacity="1" fill-rule="nonzero"/><path fill="rgb(6.669617%, 11.369324%, 14.118958%)" d="M 94.941406 77.691406 C 95.023438 78.089844 94.734375 78.316406 94.449219 78.316406 C 94.210938 78.316406 93.972656 78.160156 93.925781 77.828125 L 93.757812 76.632812 L 92.71875 76.632812 L 92.558594 77.828125 C 92.511719 78.160156 92.292969 78.316406 92.035156 78.316406 C 91.75 78.316406 91.460938 78.089844 91.542969 77.691406 L 92.6875 71.753906 C 92.757812 71.421875 92.925781 71.265625 93.242188 71.265625 C 93.558594 71.265625 93.726562 71.421875 93.796875 71.753906 Z M 92.847656 75.730469 L 93.636719 75.730469 L 93.28125 73.105469 C 93.273438 73.019531 93.25 72.898438 93.242188 72.773438 C 93.230469 72.898438 93.210938 73.027344 93.203125 73.105469 Z M 92.847656 75.730469 " fill-opacity="1" fill-rule="nonzero"/><path fill="rgb(6.669617%, 11.369324%, 14.118958%)" d="M 98.316406 76.484375 C 98.316406 76.152344 98.503906 75.984375 98.796875 75.984375 C 99.117188 75.984375 99.304688 76.179688 99.304688 76.484375 L 99.304688 76.71875 C 99.304688 77.152344 99.441406 77.484375 99.886719 77.484375 C 100.292969 77.484375 100.460938 77.191406 100.460938 76.710938 C 100.460938 75.976562 100.054688 75.59375 99.589844 75.171875 C 98.867188 74.527344 98.265625 73.871094 98.265625 72.890625 C 98.265625 71.785156 98.867188 71.226562 99.828125 71.226562 C 100.746094 71.226562 101.351562 71.8125 101.351562 72.761719 L 101.351562 73.105469 C 101.351562 73.398438 101.152344 73.585938 100.855469 73.585938 C 100.570312 73.585938 100.363281 73.398438 100.363281 73.105469 L 100.363281 72.792969 C 100.363281 72.371094 100.183594 72.117188 99.828125 72.117188 C 99.441406 72.117188 99.292969 72.390625 99.292969 72.8125 C 99.292969 73.449219 99.648438 73.832031 100.105469 74.25 C 100.667969 74.78125 101.488281 75.523438 101.488281 76.613281 C 101.488281 77.628906 100.855469 78.355469 99.867188 78.355469 C 98.886719 78.355469 98.316406 77.667969 98.316406 76.757812 Z M 98.316406 76.484375 " fill-opacity="1" fill-rule="nonzero"/><path fill="rgb(6.669617%, 11.369324%, 14.118958%)" d="M 106.730469 72.285156 L 106.730469 77.796875 C 106.730469 78.101562 106.511719 78.316406 106.207031 78.316406 C 105.890625 78.316406 105.683594 78.101562 105.683594 77.796875 L 105.683594 72.285156 L 104.941406 72.285156 C 104.671875 72.285156 104.476562 72.097656 104.476562 71.824219 C 104.476562 71.558594 104.671875 71.363281 104.941406 71.363281 L 107.472656 71.363281 C 107.75 71.363281 107.9375 71.558594 107.9375 71.824219 C 107.9375 72.097656 107.75 72.285156 107.472656 72.285156 Z M 106.730469 72.285156 " fill-opacity="1" fill-rule="nonzero"/><path fill="rgb(6.669617%, 11.369324%, 14.118958%)" d="M 111.269531 71.785156 C 111.269531 71.480469 111.476562 71.265625 111.792969 71.265625 C 112.097656 71.265625 112.316406 71.480469 112.316406 71.785156 L 112.316406 77.796875 C 112.316406 78.101562 112.097656 78.316406 111.792969 78.316406 C 111.476562 78.316406 111.269531 78.101562 111.269531 77.796875 Z M 111.269531 71.785156 " fill-opacity="1" fill-rule="nonzero"/><path fill="rgb(6.669617%, 11.369324%, 14.118958%)" d="M 119.1875 72.882812 L 119.1875 73.398438 C 119.1875 73.703125 118.992188 73.898438 118.695312 73.898438 C 118.386719 73.898438 118.199219 73.703125 118.199219 73.398438 L 118.199219 72.714844 C 118.199219 72.3125 117.984375 72.117188 117.636719 72.117188 C 117.289062 72.117188 117.082031 72.3125 117.082031 72.714844 L 117.082031 76.867188 C 117.082031 77.269531 117.289062 77.464844 117.636719 77.464844 C 117.984375 77.464844 118.199219 77.269531 118.199219 76.867188 L 118.199219 76.179688 C 118.199219 75.878906 118.386719 75.683594 118.695312 75.683594 C 118.992188 75.683594 119.1875 75.878906 119.1875 76.179688 L 119.1875 76.699219 C 119.1875 77.699219 118.644531 78.355469 117.625 78.355469 C 116.589844 78.355469 116.035156 77.71875 116.035156 76.699219 L 116.035156 72.878906 C 116.035156 71.863281 116.589844 71.226562 117.625 71.226562 C 118.644531 71.226562 119.1875 71.882812 119.1875 72.882812 Z M 119.1875 72.882812 " fill-opacity="1" fill-rule="nonzero"/><path fill="rgb(6.669617%, 11.369324%, 14.118958%)" d="M 122.691406 72.859375 C 122.691406 71.871094 123.324219 71.226562 124.332031 71.226562 C 125.339844 71.226562 125.972656 71.871094 125.972656 72.859375 L 125.972656 76.71875 C 125.972656 77.710938 125.339844 78.355469 124.332031 78.355469 C 123.324219 78.355469 122.691406 77.710938 122.691406 76.71875 Z M 124.925781 72.714844 C 124.925781 72.363281 124.695312 72.117188 124.332031 72.117188 C 123.964844 72.117188 123.738281 72.363281 123.738281 72.714844 L 123.738281 76.867188 C 123.738281 77.21875 123.964844 77.464844 124.332031 77.464844 C 124.695312 77.464844 124.925781 77.21875 124.925781 76.867188 Z M 124.925781 72.714844 " fill-opacity="1" fill-rule="nonzero"/></svg>